<svg xmlns="http://www.w3.org/2000/svg" viewBox="0 0 960 720" role="img" aria-labelledby="title desc">
  <title id="title">Pen placeholder</title>
  <desc id="desc">Simple pen illustration used as a default gallery image.</desc>
  <defs>
    <linearGradient id="bg" x1="0%" y1="0%" x2="100%" y2="100%">
      <stop offset="0%" stop-color="#111827" />
      <stop offset="100%" stop-color="#05070d" />
    </linearGradient>
    <linearGradient id="barrel" x1="0%" y1="0%" x2="100%" y2="0%">
      <stop offset="0%" stop-color="#4f8cff" />
      <stop offset="50%" stop-color="#8bb4ff" />
      <stop offset="100%" stop-color="#6ee7f9" />
    </linearGradient>
    <linearGradient id="metal" x1="0%" y1="0%" x2="100%" y2="100%">
      <stop offset="0%" stop-color="#f8fafc" />
      <stop offset="100%" stop-color="#94a3b8" />
    </linearGradient>
  </defs>
  <rect width="960" height="720" rx="48" fill="url(#bg)" />
  <g opacity="0.18">
    <circle cx="184" cy="160" r="112" fill="#7aa2ff" />
    <circle cx="766" cy="530" r="152" fill="#38bdf8" />
  </g>
  <g transform="translate(120 110) rotate(-12 360 250)">
    <rect x="130" y="228" width="470" height="78" rx="39" fill="url(#barrel)" />
    <rect x="235" y="204" width="120" height="18" rx="9" fill="#dbeafe" opacity="0.55" />
    <rect x="560" y="236" width="96" height="62" rx="18" fill="#1f2937" opacity="0.92" />
    <path d="M655 250 L770 266 L655 284 Z" fill="url(#metal)" />
    <path d="M770 266 L830 266 L782 286 Z" fill="#f8fafc" />
    <rect x="82" y="216" width="82" height="102" rx="24" fill="#e2e8f0" opacity="0.9" />
    <rect x="96" y="230" width="54" height="74" rx="18" fill="#0f172a" opacity="0.9" />
    <path d="M178 182 C250 120 358 102 468 126" fill="none" stroke="#f8fafc" stroke-width="18" stroke-linecap="round" opacity="0.78" />
  </g>
</svg>
